<?xml version="1.0" standalone="no"?>
<!DOCTYPE svg PUBLIC "-//W3C//DTD SVG 20010904//EN"
 "http://www.w3.org/TR/2001/REC-SVG-20010904/DTD/svg10.dtd">
<svg version="1.0" xmlns="http://www.w3.org/2000/svg"
 width="256.000000pt" height="256.000000pt" viewBox="0 0 256.000000 256.000000"
 preserveAspectRatio="xMidYMid meet">

<g transform="translate(0.000000,256.000000) scale(0.100000,-0.100000)"
fill="#FFFFFF" stroke="none">
<path d="M2097 2520 c-113 -19 -218 -104 -257 -207 -39 -105 -35 -141 69 -530
52 -194 98 -353 102 -353 4 0 67 82 140 183 73 100 173 235 221 300 58 78 93
136 103 170 60 201 -62 398 -270 436 -32 6 -59 10 -59 10 -1 -1 -22 -5 -49 -9z
m108 -183 c105 -41 147 -153 93 -249 -85 -151 -318 -87 -318 88 0 116 120 202
225 161z"/>
<path d="M1720 1682 c0 -77 29 -715 32 -717 2 -1 28 -21 59 -43 31 -23 60 -42
65 -42 5 0 25 30 44 68 51 99 174 220 269 266 41 19 98 41 127 47 51 12 54 14
53 43 0 17 -8 76 -17 130 l-17 99 -50 18 c-28 10 -55 18 -60 18 -6 1 -64 -73
-130 -164 l-119 -166 -48 178 c-26 98 -53 200 -61 227 -13 49 -14 50 -80 72
l-67 23 0 -57z"/>
<path d="M1331 1624 c-129 -57 -236 -105 -237 -107 -5 -5 -35 -369 -31 -373 2
-3 69 20 149 51 80 30 154 55 165 55 12 0 31 -9 44 -19 23 -18 24 -25 29 -189
l5 -171 77 47 77 47 1 55 c0 38 -26 652 -30 708 0 6 -30 -7 -249 -104z"/>
<path d="M246 1313 c-59 -225 -110 -419 -113 -432 -6 -23 -4 -23 30 -17 100
19 317 -62 586 -218 63 -37 116 -64 119 -61 5 4 43 389 39 391 -66 34 -201
136 -258 193 -134 136 -176 271 -134 427 10 36 16 66 14 68 -9 6 -155 56 -165
56 -6 0 -59 -183 -118 -407z"/>
<path d="M659 1573 c-36 -105 -6 -213 86 -306 48 -48 163 -123 173 -112 7 6
31 255 32 320 l0 40 -128 44 c-70 24 -132 46 -138 48 -7 3 -18 -13 -25 -34z"/>
<path d="M2343 1114 c-81 -21 -132 -51 -198 -118 -58 -58 -125 -168 -125 -205
0 -18 185 -132 302 -186 43 -19 97 -38 122 -41 40 -6 44 -5 41 12 -3 11 -23
138 -45 284 -23 145 -42 265 -43 266 -1 1 -26 -4 -54 -12z"/>
<path d="M1160 1013 c-63 -25 -116 -46 -116 -47 -3 -2 -34 -369 -31 -372 1 -1
67 39 147 90 l145 91 3 143 c2 131 1 142 -15 141 -10 -1 -70 -21 -133 -46z"/>
<path d="M1305 611 l-310 -190 -17 -188 c-9 -103 -14 -190 -12 -192 2 -2 155
60 340 139 l335 144 -7 170 c-4 94 -10 201 -13 238 l-6 68 -310 -189z"/>
<path d="M1765 569 c4 -118 11 -221 15 -229 8 -15 767 -266 776 -257 3 2 -6
71 -19 153 l-23 149 -74 21 c-179 50 -418 180 -648 353 l-34 25 7 -215z"/>
<path d="M85 698 c-14 -42 -85 -322 -82 -325 8 -7 802 -333 813 -333 7 0 15
58 23 158 7 86 15 171 18 189 5 31 2 34 -81 88 -186 121 -405 206 -581 225
-113 12 -105 12 -110 -2z"/>
</g>
</svg>
